<mxfile host="app.diagrams.net" modified="2022-02-17T06:15:42.770Z" agent="5.0 (Windows NT 10.0; Win64; x64) AppleWebKit/537.36 (KHTML, like Gecko) Chrome/96.0.4664.110 Safari/537.36" etag="8AIocGKbD8Up_e2rZDC8" version="16.2.6" type="github">
  <diagram id="PPjevYRMTDDqjanKsNra" name="Page-1">
    <mxGraphModel dx="1421" dy="576" grid="1" gridSize="10" guides="1" tooltips="1" connect="1" arrows="1" fold="1" page="1" pageScale="1" pageWidth="827" pageHeight="1169" math="0" shadow="0">
      <root>
        <mxCell id="0" />
        <mxCell id="1" parent="0" />
        <mxCell id="nfUDfVB1_k-mqThzUvoE-1" value="PrivateKey" style="rounded=0;whiteSpace=wrap;html=1;" vertex="1" parent="1">
          <mxGeometry x="205" y="240" width="90" height="40" as="geometry" />
        </mxCell>
        <mxCell id="nfUDfVB1_k-mqThzUvoE-2" value="数字摘要" style="text;html=1;strokeColor=none;fillColor=none;align=center;verticalAlign=middle;whiteSpace=wrap;rounded=0;" vertex="1" parent="1">
          <mxGeometry x="220" y="210" width="60" height="30" as="geometry" />
        </mxCell>
        <mxCell id="nfUDfVB1_k-mqThzUvoE-4" style="edgeStyle=orthogonalEdgeStyle;rounded=0;orthogonalLoop=1;jettySize=auto;html=1;" edge="1" parent="1" source="nfUDfVB1_k-mqThzUvoE-3" target="nfUDfVB1_k-mqThzUvoE-1">
          <mxGeometry relative="1" as="geometry" />
        </mxCell>
        <mxCell id="nfUDfVB1_k-mqThzUvoE-3" value="Note" style="shape=note;size=20;whiteSpace=wrap;html=1;" vertex="1" parent="1">
          <mxGeometry x="60" y="210" width="100" height="100" as="geometry" />
        </mxCell>
      </root>
    </mxGraphModel>
  </diagram>
</mxfile>
